<?xml version="1.0" encoding="utf-8"?>
<!-- Generator: Adobe Illustrator 27.5.0, SVG Export Plug-In . SVG Version: 6.00 Build 0)  -->
<svg version="1.1" xmlns="http://www.w3.org/2000/svg" xmlns:xlink="http://www.w3.org/1999/xlink" x="0px" y="0px"
	 viewBox="0 0 750 500" style="enable-background:new 0 0 750 500;" xml:space="preserve">
<g id="BACKGROUND">
	<rect style="fill:#FFFFFF;" width="750" height="500"/>
</g>
<g id="OBJECTS">
	<g>
		<path style="fill:#EDF5F7;" d="M105.837,455.074c0,0-57.837-35.589-51.328-107.074c5.903-64.823,48.163-76.168,75.359-154.084
			C157.065,116,129.652,50.849,203.81,28.181c56.148-17.163,114.403,62.872,234.233,59.898s177.722-41.719,221.29,12.239
			c38.269,47.395-21.333,88.55-16.667,151.089c2.601,34.854,27.177,53.84,34.333,107.406c3.262,24.419-1.667,70.512-25.06,96.262
			H143.613"/>
		<line style="fill:none;stroke:#C3DBE6;stroke-miterlimit:10;" x1="73" y1="455.074" x2="677" y2="455.074"/>
	</g>
	<g>
		
			<ellipse transform="matrix(0.9287 -0.3708 0.3708 0.9287 -37.6627 55.9323)" style="fill:#C3DBE6;" cx="126.63" cy="125.915" rx="52.092" ry="52.092"/>
		
			<ellipse transform="matrix(0.1624 -0.9867 0.9867 0.1624 -18.1774 230.4157)" style="fill:#FFFFFF;" cx="126.63" cy="125.915" rx="43.87" ry="43.87"/>
		
			<ellipse transform="matrix(0.7071 -0.7071 0.7071 0.7071 -51.9459 126.4208)" style="fill:#C3DBE6;" cx="126.631" cy="125.915" rx="35.925" ry="35.925"/>
		
			<ellipse transform="matrix(0.161 -0.987 0.987 0.161 -18.0277 230.6228)" style="fill:#FFFFFF;" cx="126.63" cy="125.915" rx="16.063" ry="16.063"/>
		
			<ellipse transform="matrix(0.9247 -0.3807 0.3807 0.9247 -38.4006 57.6906)" style="fill:#C3DBE6;" cx="126.63" cy="125.915" rx="8.515" ry="8.515"/>
		<g>
			<g>
				<g>
					<polygon style="fill:#A2C5D2;" points="62.278,165.602 54.665,169.915 61.174,171.937 68.788,167.623 					"/>
				</g>
				<g>
					<polygon style="fill:#A2C5D2;" points="67.176,174.246 59.562,178.559 61.174,171.937 68.788,167.623 					"/>
				</g>
			</g>
			<g>
				<path style="fill:#A2C5D2;" d="M63.921,170.38c-0.676-1.193,6.674-6.636,18.134-13.129c11.46-6.493,28.17-13.105,28.17-13.105
					s-14.262,10.935-25.722,17.428C73.044,168.066,64.597,171.574,63.921,170.38z"/>
			</g>
			<g>
				<path style="fill:#C3DBE6;" d="M61.174,171.937c3.989-2.49,8.031-4.887,12.08-7.27c4.048-2.385,8.14-4.695,12.207-7.046
					c4.106-2.283,8.192-4.602,12.318-6.851c4.126-2.248,8.26-4.483,12.446-6.624c-3.988,2.491-8.03,4.888-12.079,7.272
					c-4.05,2.383-8.139,4.696-12.208,7.044c-4.108,2.281-8.192,4.603-12.318,6.849C69.494,167.56,65.36,169.794,61.174,171.937z"/>
			</g>
		</g>
		<g>
			<g>
				<g>
					<polygon style="fill:#A2C5D2;" points="90.083,88.777 83.414,83.112 83.755,89.919 90.425,95.584 					"/>
				</g>
				<g>
					<polygon style="fill:#A2C5D2;" points="83.652,96.349 76.982,90.684 83.755,89.919 90.425,95.584 					"/>
				</g>
			</g>
			<g>
				<path style="fill:#A2C5D2;" d="M86.161,91.963c0.888-1.045,8.527,3.984,18.566,12.511c10.039,8.527,21.997,21.942,21.997,21.942
					s-15.174-9.629-25.213-18.156C91.473,99.733,85.273,93.008,86.161,91.963z"/>
			</g>
			<g>
				<path style="fill:#C3DBE6;" d="M83.755,89.919c3.71,2.889,7.351,5.859,10.982,8.842c3.632,2.981,7.208,6.028,10.815,9.038
					c3.556,3.07,7.14,6.109,10.67,9.209c3.53,3.101,7.051,6.213,10.501,9.408c-3.711-2.888-7.352-5.858-10.983-8.84
					c-3.631-2.983-7.209-6.027-10.814-9.039c-3.554-3.072-7.14-6.108-10.669-9.21C90.727,96.226,87.207,93.113,83.755,89.919z"/>
			</g>
		</g>
	</g>
	<g>
		<g>
			<path style="fill:#C3DBE6;" d="M189.928,284.001V92.893c0-10.316,8.363-18.679,18.679-18.679h332.786
				c10.316,0,18.679,8.363,18.679,18.679v191.109c0,10.316-8.363,18.679-18.679,18.679H208.607
				C198.291,302.681,189.928,294.318,189.928,284.001z"/>
			<path style="fill:#FFFFFF;" d="M209.607,298.681c-8.659,0-15.679-7.02-15.679-15.679V93.214c0-8.284,6.716-15,15-15h332.145
				c8.284,0,15,6.716,15,15v189.787c0,8.659-7.02,15.679-15.679,15.679H209.607z"/>
			<path style="fill:#A2C5D2;" d="M208.146,78.214h332.926c8.284,0,15,6.716,15,15v12.076H193.146V93.214
				C193.146,84.93,199.862,78.214,208.146,78.214z"/>
			<g>
				<circle style="fill:#DCECF0;" cx="213.55" cy="91.753" r="3.46"/>
				<circle style="fill:#DCECF0;" cx="234.164" cy="91.753" r="3.46"/>
				<path style="fill:#DCECF0;" d="M258.237,91.753c0,1.911-1.549,3.46-3.46,3.46c-1.911,0-3.46-1.549-3.46-3.46
					c0-1.911,1.549-3.46,3.46-3.46C256.688,88.293,258.237,89.842,258.237,91.753z"/>
			</g>
		</g>
		<g>
			
				<line style="fill:none;stroke:#C3DBE6;stroke-width:3;stroke-linecap:round;stroke-linejoin:round;stroke-miterlimit:10;" x1="212.642" y1="262.396" x2="419.142" y2="262.396"/>
			
				<line style="fill:none;stroke:#C3DBE6;stroke-width:3;stroke-linecap:round;stroke-linejoin:round;stroke-miterlimit:10;" x1="212.642" y1="274.305" x2="373.949" y2="274.305"/>
			
				<line style="fill:none;stroke:#C3DBE6;stroke-width:3;stroke-linecap:round;stroke-linejoin:round;stroke-miterlimit:10;" x1="212.642" y1="286.214" x2="313.083" y2="286.214"/>
			<g>
				
					<line style="fill:none;stroke:#C3DBE6;stroke-width:3;stroke-linecap:round;stroke-linejoin:round;stroke-miterlimit:10;" x1="448.178" y1="262.396" x2="467.267" y2="262.396"/>
				
					<line style="fill:none;stroke:#C3DBE6;stroke-width:3;stroke-linecap:round;stroke-linejoin:round;stroke-miterlimit:10;" x1="448.178" y1="274.305" x2="467.267" y2="274.305"/>
				
					<line style="fill:none;stroke:#C3DBE6;stroke-width:3;stroke-linecap:round;stroke-linejoin:round;stroke-miterlimit:10;" x1="448.178" y1="286.214" x2="467.267" y2="286.214"/>
				
					<line style="fill:none;stroke:#C3DBE6;stroke-width:3;stroke-linecap:round;stroke-linejoin:round;stroke-miterlimit:10;" x1="483.223" y1="262.396" x2="502.312" y2="262.396"/>
				
					<line style="fill:none;stroke:#C3DBE6;stroke-width:3;stroke-linecap:round;stroke-linejoin:round;stroke-miterlimit:10;" x1="483.223" y1="274.305" x2="502.312" y2="274.305"/>
				
					<line style="fill:none;stroke:#C3DBE6;stroke-width:3;stroke-linecap:round;stroke-linejoin:round;stroke-miterlimit:10;" x1="483.223" y1="286.214" x2="502.312" y2="286.214"/>
				
					<line style="fill:none;stroke:#C3DBE6;stroke-width:3;stroke-linecap:round;stroke-linejoin:round;stroke-miterlimit:10;" x1="518.268" y1="262.396" x2="537.358" y2="262.396"/>
				
					<line style="fill:none;stroke:#C3DBE6;stroke-width:3;stroke-linecap:round;stroke-linejoin:round;stroke-miterlimit:10;" x1="518.268" y1="274.305" x2="537.358" y2="274.305"/>
				
					<line style="fill:none;stroke:#C3DBE6;stroke-width:3;stroke-linecap:round;stroke-linejoin:round;stroke-miterlimit:10;" x1="518.268" y1="286.214" x2="537.358" y2="286.214"/>
			</g>
			<g>
				
					<line style="fill:none;stroke:#C3DBE6;stroke-width:0.7903;stroke-miterlimit:10;" x1="535.963" y1="111.968" x2="535.963" y2="157.811"/>
				
					<line style="fill:none;stroke:#C3DBE6;stroke-width:6.3222;stroke-miterlimit:10;" x1="535.963" y1="126.191" x2="535.963" y2="147.055"/>
				
					<line style="fill:none;stroke:#C3DBE6;stroke-width:0.7903;stroke-miterlimit:10;" x1="525.78" y1="119.726" x2="525.78" y2="165.568"/>
				
					<line style="fill:none;stroke:#C3DBE6;stroke-width:6.3222;stroke-miterlimit:10;" x1="525.78" y1="141.06" x2="525.78" y2="154.813"/>
				
					<line style="fill:none;stroke:#C3DBE6;stroke-width:0.7903;stroke-miterlimit:10;" x1="515.596" y1="123.753" x2="515.596" y2="169.596"/>
				
					<line style="fill:none;stroke:#C3DBE6;stroke-width:6.3222;stroke-miterlimit:10;" x1="515.596" y1="147.115" x2="515.596" y2="168.626"/>
				
					<line style="fill:none;stroke:#C3DBE6;stroke-width:0.7903;stroke-miterlimit:10;" x1="505.413" y1="121.489" x2="505.413" y2="167.331"/>
				
					<line style="fill:none;stroke:#C3DBE6;stroke-width:6.3222;stroke-miterlimit:10;" x1="505.413" y1="128.189" x2="505.413" y2="156.576"/>
				
					<line style="fill:none;stroke:#C3DBE6;stroke-width:0.7903;stroke-miterlimit:10;" x1="495.229" y1="137.175" x2="495.229" y2="171.557"/>
				
					<line style="fill:none;stroke:#C3DBE6;stroke-width:6.3222;stroke-miterlimit:10;" x1="495.229" y1="146.05" x2="495.229" y2="161.213"/>
				
					<line style="fill:none;stroke:#C3DBE6;stroke-width:0.7903;stroke-miterlimit:10;" x1="485.046" y1="142.112" x2="485.046" y2="183.018"/>
				
					<line style="fill:none;stroke:#C3DBE6;stroke-width:6.3222;stroke-miterlimit:10;" x1="485.046" y1="152.868" x2="485.046" y2="177.199"/>
				
					<line style="fill:none;stroke:#C3DBE6;stroke-width:0.7903;stroke-miterlimit:10;" x1="474.862" y1="134.883" x2="474.862" y2="170.499"/>
				
					<line style="fill:none;stroke:#C3DBE6;stroke-width:6.3222;stroke-miterlimit:10;" x1="474.862" y1="143.229" x2="474.862" y2="163.447"/>
				
					<line style="fill:none;stroke:#C3DBE6;stroke-width:0.7903;stroke-miterlimit:10;" x1="464.678" y1="120.602" x2="464.678" y2="163.27"/>
				
					<line style="fill:none;stroke:#C3DBE6;stroke-width:6.3222;stroke-miterlimit:10;" x1="464.678" y1="128.889" x2="464.678" y2="155.689"/>
				
					<line style="fill:none;stroke:#C3DBE6;stroke-width:0.7903;stroke-miterlimit:10;" x1="454.495" y1="140.782" x2="454.495" y2="174.635"/>
				
					<line style="fill:none;stroke:#C3DBE6;stroke-width:6.3222;stroke-miterlimit:10;" x1="454.495" y1="148.892" x2="454.495" y2="165.29"/>
				
					<line style="fill:none;stroke:#C3DBE6;stroke-width:0.7903;stroke-miterlimit:10;" x1="444.311" y1="154.637" x2="444.311" y2="188.666"/>
				
					<line style="fill:none;stroke:#C3DBE6;stroke-width:6.3222;stroke-miterlimit:10;" x1="444.311" y1="165.392" x2="444.311" y2="177.911"/>
				
					<line style="fill:none;stroke:#C3DBE6;stroke-width:0.7903;stroke-miterlimit:10;" x1="434.128" y1="145.821" x2="434.128" y2="180.555"/>
				
					<line style="fill:none;stroke:#C3DBE6;stroke-width:6.3222;stroke-miterlimit:10;" x1="434.128" y1="156.576" x2="434.128" y2="169.682"/>
				
					<line style="fill:none;stroke:#C3DBE6;stroke-width:0.7903;stroke-miterlimit:10;" x1="423.944" y1="154.637" x2="423.944" y2="196.777"/>
				
					<line style="fill:none;stroke:#C3DBE6;stroke-width:6.3222;stroke-miterlimit:10;" x1="423.944" y1="165.392" x2="423.944" y2="189.724"/>
				
					<line style="fill:none;stroke:#C3DBE6;stroke-width:0.7903;stroke-miterlimit:10;" x1="413.761" y1="154.637" x2="413.761" y2="183.817"/>
				
					<line style="fill:none;stroke:#C3DBE6;stroke-width:6.3222;stroke-miterlimit:10;" x1="413.761" y1="165.392" x2="413.761" y2="177.264"/>
				
					<line style="fill:none;stroke:#C3DBE6;stroke-width:0.7903;stroke-miterlimit:10;" x1="403.577" y1="150.053" x2="403.577" y2="180.555"/>
				
					<line style="fill:none;stroke:#C3DBE6;stroke-width:6.3222;stroke-miterlimit:10;" x1="403.577" y1="160.808" x2="403.577" y2="169.682"/>
				
					<line style="fill:none;stroke:#C3DBE6;stroke-width:0.7903;stroke-miterlimit:10;" x1="393.394" y1="154.637" x2="393.394" y2="212.998"/>
				
					<line style="fill:none;stroke:#C3DBE6;stroke-width:6.3222;stroke-miterlimit:10;" x1="393.394" y1="165.392" x2="393.394" y2="206.65"/>
				
					<line style="fill:none;stroke:#C3DBE6;stroke-width:0.7903;stroke-miterlimit:10;" x1="383.21" y1="171.034" x2="383.21" y2="216.877"/>
				
					<line style="fill:none;stroke:#C3DBE6;stroke-width:6.3222;stroke-miterlimit:10;" x1="383.21" y1="181.79" x2="383.21" y2="206.121"/>
				
					<line style="fill:none;stroke:#C3DBE6;stroke-width:0.7903;stroke-miterlimit:10;" x1="373.027" y1="172.974" x2="373.027" y2="225.164"/>
				
					<line style="fill:none;stroke:#C3DBE6;stroke-width:6.3222;stroke-miterlimit:10;" x1="373.027" y1="182.848" x2="373.027" y2="214.408"/>
				
					<line style="fill:none;stroke:#C3DBE6;stroke-width:0.7903;stroke-miterlimit:10;" x1="362.843" y1="202.949" x2="362.843" y2="245.265"/>
				
					<line style="fill:none;stroke:#C3DBE6;stroke-width:6.3222;stroke-miterlimit:10;" x1="362.843" y1="210.178" x2="362.843" y2="234.51"/>
				
					<line style="fill:none;stroke:#C3DBE6;stroke-width:0.7903;stroke-miterlimit:10;" x1="352.66" y1="162.174" x2="352.66" y2="208.017"/>
				
					<line style="fill:none;stroke:#C3DBE6;stroke-width:6.3222;stroke-miterlimit:10;" x1="352.66" y1="172.93" x2="352.66" y2="202.904"/>
				
					<line style="fill:none;stroke:#C3DBE6;stroke-width:0.7903;stroke-miterlimit:10;" x1="342.476" y1="165.921" x2="342.476" y2="211.764"/>
				
					<line style="fill:none;stroke:#C3DBE6;stroke-width:6.3222;stroke-miterlimit:10;" x1="342.476" y1="183.2" x2="342.476" y2="201.008"/>
				
					<line style="fill:none;stroke:#C3DBE6;stroke-width:0.7903;stroke-miterlimit:10;" x1="332.293" y1="183.2" x2="332.293" y2="229.043"/>
				
					<line style="fill:none;stroke:#C3DBE6;stroke-width:6.3222;stroke-miterlimit:10;" x1="332.293" y1="202.771" x2="332.293" y2="218.287"/>
				
					<line style="fill:none;stroke:#C3DBE6;stroke-width:0.7903;stroke-miterlimit:10;" x1="322.109" y1="193.955" x2="322.109" y2="239.798"/>
				
					<line style="fill:none;stroke:#C3DBE6;stroke-width:6.3222;stroke-miterlimit:10;" x1="322.109" y1="216.877" x2="322.109" y2="229.043"/>
				
					<line style="fill:none;stroke:#C3DBE6;stroke-width:0.7903;stroke-miterlimit:10;" x1="311.925" y1="187.608" x2="311.925" y2="233.451"/>
				
					<line style="fill:none;stroke:#C3DBE6;stroke-width:6.3222;stroke-miterlimit:10;" x1="311.925" y1="207.885" x2="311.925" y2="222.695"/>
				
					<line style="fill:none;stroke:#C3DBE6;stroke-width:0.7903;stroke-miterlimit:10;" x1="301.742" y1="183.2" x2="301.742" y2="229.043"/>
				
					<line style="fill:none;stroke:#C3DBE6;stroke-width:6.3222;stroke-miterlimit:10;" x1="301.742" y1="199.774" x2="301.742" y2="218.287"/>
				
					<line style="fill:none;stroke:#C3DBE6;stroke-width:0.7903;stroke-miterlimit:10;" x1="291.558" y1="194.498" x2="291.558" y2="240.34"/>
				
					<line style="fill:none;stroke:#C3DBE6;stroke-width:6.3222;stroke-miterlimit:10;" x1="291.558" y1="201.021" x2="291.558" y2="229.585"/>
				
					<line style="fill:none;stroke:#C3DBE6;stroke-width:0.7903;stroke-miterlimit:10;" x1="281.375" y1="175.429" x2="281.375" y2="221.271"/>
				
					<line style="fill:none;stroke:#C3DBE6;stroke-width:6.3222;stroke-miterlimit:10;" x1="281.375" y1="186.184" x2="281.375" y2="213.866"/>
				
					<line style="fill:none;stroke:#C3DBE6;stroke-width:0.7903;stroke-miterlimit:10;" x1="271.191" y1="156.57" x2="271.191" y2="202.413"/>
				
					<line style="fill:none;stroke:#C3DBE6;stroke-width:6.3222;stroke-miterlimit:10;" x1="271.191" y1="167.326" x2="271.191" y2="195.36"/>
				
					<line style="fill:none;stroke:#C3DBE6;stroke-width:0.7903;stroke-miterlimit:10;" x1="261.008" y1="164.328" x2="261.008" y2="210.171"/>
				
					<line style="fill:none;stroke:#C3DBE6;stroke-width:6.3222;stroke-miterlimit:10;" x1="261.008" y1="172.086" x2="261.008" y2="199.415"/>
				
					<line style="fill:none;stroke:#C3DBE6;stroke-width:0.7903;stroke-miterlimit:10;" x1="250.824" y1="154.813" x2="250.824" y2="200.656"/>
				
					<line style="fill:none;stroke:#C3DBE6;stroke-width:6.3222;stroke-miterlimit:10;" x1="250.824" y1="165.568" x2="250.824" y2="173.15"/>
				
					<line style="fill:none;stroke:#C3DBE6;stroke-width:0.7903;stroke-miterlimit:10;" x1="240.641" y1="144.41" x2="240.641" y2="190.253"/>
				
					<line style="fill:none;stroke:#C3DBE6;stroke-width:6.3222;stroke-miterlimit:10;" x1="240.641" y1="155.166" x2="240.641" y2="167.332"/>
				
					<line style="fill:none;stroke:#C3DBE6;stroke-width:0.7903;stroke-miterlimit:10;" x1="230.457" y1="166.538" x2="230.457" y2="220.932"/>
				
					<line style="fill:none;stroke:#C3DBE6;stroke-width:6.3222;stroke-miterlimit:10;" x1="230.457" y1="172.18" x2="230.457" y2="210.177"/>
				
					<line style="fill:none;stroke:#C3DBE6;stroke-width:0.7903;stroke-miterlimit:10;" x1="220.274" y1="197.658" x2="220.274" y2="243.501"/>
				
					<line style="fill:none;stroke:#C3DBE6;stroke-width:6.3222;stroke-miterlimit:10;" x1="220.274" y1="186.027" x2="220.274" y2="206.656"/>
				
					<line style="fill:none;stroke:#C3DBE6;stroke-width:0.7903;stroke-miterlimit:10;" x1="210.09" y1="194.49" x2="210.09" y2="240.333"/>
				
					<line style="fill:none;stroke:#C3DBE6;stroke-width:6.3222;stroke-miterlimit:10;" x1="210.09" y1="202.777" x2="210.09" y2="229.577"/>
			</g>
		</g>
	</g>
	<g>
		<path style="fill:#DCECF0;" d="M645.621,220.01l-13.53,20.8h-24.82c0.78-13.48,11.96-24.18,25.64-24.18
			C637.531,216.63,641.871,217.86,645.621,220.01z"/>
		<path style="fill:#C3DBE6;" d="M658.581,242.3c0,4.87-1.35,9.41-3.71,13.29l-19.91-13.69l13.17-20.26
			C654.471,226.31,658.581,233.83,658.581,242.3z"/>
		<path style="fill:#A2C5D2;" d="M653.161,258.07c-4.7,6.03-12.02,9.91-20.25,9.91c-13.67,0-24.85-10.69-25.64-24.17h25.17
			L653.161,258.07z"/>
	</g>
	<g>
		<g>
			<path style="fill:#FF9014;" d="M648.884,429.966c0,0,18.55-5.22,17.316-16.961c-1.234-11.741-15.356-14.1-7.164-24.5
				c8.192-10.4,10.452-15.779,4.731-21.27c-5.722-5.492,4.738-9.253,4.295-19.409c-0.443-10.156-10.587-12.224-16.945-7.711
				c-6.358,4.514-1.865,12.413-4.405,18.619c-2.54,6.206-11.723,8.275-13.287,15.986c-1.563,7.711,6.735,14.127,6.839,19.747
				c0.104,5.62-10.579,11.848-10.572,20.123C629.7,422.865,645.377,429.862,648.884,429.966z"/>
			<g>
				<path style="fill:#FF7800;" d="M650.582,433.398c-1.118-6.979-1.71-14.14-1.977-21.261c-0.249-7.135-0.094-14.286,0.468-21.41
					c0.554-7.128,1.729-14.195,3.328-21.165c1.662-6.965,4.104-13.718,7.112-20.231c-3.18,6.426-5.813,13.138-7.669,20.088
					c-1.793,6.956-3.166,14.038-3.915,21.197c-0.758,7.155-1.107,14.357-1.048,21.559c0.081,7.211,0.474,14.385,1.433,21.597
					L650.582,433.398z"/>
			</g>
		</g>
		<g>
			<path style="fill:#FF7800;" d="M645.651,446.706c0,0-12.197-8.384-8.873-17.267c3.324-8.883,6.253-6.948,6.033-19.241
				c-0.22-12.293,4.219-19.409,17.597-20.743c13.378-1.334,18.837-6.174,25.624-8.303c6.787-2.129,11.489-0.935,13.285,3.469
				s0.019,11.253-8.668,12.484c-8.688,1.231-13.29,3.826-14.144,12.844c-0.854,9.017-5.049,11.284-13.001,12.801
				C655.551,424.267,665.066,444.244,645.651,446.706z"/>
			<g>
				<path style="fill:#FF9014;" d="M645.319,444.924c0.663-12.263,4.534-24.344,11.385-34.466
					c6.838-10.106,16.727-18.125,28.084-22.378c-11.231,4.575-20.784,12.822-27.222,22.945
					c-6.452,10.139-9.882,22.065-10.186,33.979L645.319,444.924z"/>
			</g>
		</g>
		<g>
			<path style="fill:#FF9407;" d="M640.513,433.761c0,0-14.219-1.936-16.59-10.235c-2.371-8.299,3.305-11.346-4.724-14.383
				c-8.028-3.037-13.908-1.969-15.512-9.953c-1.604-7.984-4.117-13.516-10.421-16.872c-6.305-3.356-1.011-12.405,5.743-9.597
				c6.754,2.808,8.939,8.145,18.496,7.33c10.78-0.919,17.022,1.788,15.975,10.207c-0.815,6.555,0.79,7.438,7.833,10.349
				c12.005,4.961,9.696,17.333,5.854,25.559S640.513,433.761,640.513,433.761z"/>
			<g>
				<path style="fill:#FF7800;" d="M637.762,431.456c0.428-5.634-0.764-11.353-2.938-16.641c-2.18-5.304-5.31-10.221-8.969-14.683
					c-3.668-4.465-7.88-8.491-12.443-12.066c-4.567-3.574-9.494-6.7-14.682-9.334c5.255,2.496,10.276,5.496,14.962,8.966
					c4.682,3.472,9.036,7.415,12.871,11.838c3.826,4.422,7.15,9.337,9.538,14.736c2.379,5.381,3.805,11.308,3.507,17.318
					L637.762,431.456z"/>
			</g>
		</g>
		<g>
			<path style="fill:#304A5F;" d="M660.319,429.004h-15.44h-15.44c0,0-2.531,13.415,4.556,26.07h10.884h10.884
				C662.85,442.419,660.319,429.004,660.319,429.004z"/>
			<path style="fill:#2C4C6A;" d="M662.407,434.497c-0.126-3.414-0.434-5.493-0.434-5.493h-17.094h-17.094
				c0,0-0.308,2.079-0.434,5.493H662.407z"/>
		</g>
	</g>
	<g>
		<g>
			<path style="fill:#FF7800;" d="M101.396,435.482c0.052-4.913,9.528-18.724,8.079-24.232
				c-2.906-11.043-13.398-7.759-12.375-20.125c0.588-7.107-3.906-13.698-17.442-12.75c-13.679,0.958-16.663-4.312-23.649-5.965
				c-6.986-1.652-11.633-0.111-13.123,4.452c-1.49,4.564,0.794,11.329,9.628,11.94c8.834,0.611,12.074,2.181,13.585,11.197
				s9.123,3.722,15.75,8.5c5.375,3.875-2.983,7.535,2.375,14.5C87.487,427.241,98.778,428.188,101.396,435.482z"/>
			<g>
				<path style="fill:#FF9014;" d="M99.579,433.889c-1.176-11.979-5.501-23.739-12.738-33.479
					c-7.221-9.724-17.442-17.329-29.08-21.116c11.737,3.468,22.265,10.831,29.869,20.512c7.62,9.695,12.38,21.574,13.924,33.864
					L99.579,433.889z"/>
			</g>
		</g>
		<g>
			<path style="fill:#FF9014;" d="M113.474,433.449c0,0-19.932-2.902-20.241-15.238c-0.309-12.336,10.855-16.355,0.957-26.027
				c-9.897-9.671-9.813-15.276-4.625-21.742c5.188-6.466-6.162-8.95-7.077-19.536c-0.914-10.586,9.32-14.102,16.52-10.284
				c7.201,3.818,3.611,12.613,7.083,18.702c3.472,6.089,13.27,6.991,15.933,14.772c2.663,7.78-0.389,14.373,0.263,20.212
				c0.653,5.839,7.886,12.029,8.998,20.607C132.398,423.494,117.095,432.866,113.474,433.449z"/>
			<g>
				<path style="fill:#FF7800;" d="M112.387,437.242c0.198-7.404-0.175-14.905-0.878-22.328c-0.725-7.433-1.87-14.826-3.434-22.134
					c-1.556-7.313-3.747-14.478-6.364-21.483c-2.682-6.99-6.142-13.654-10.155-19.987c4.15,6.24,7.77,12.846,10.617,19.803
					c2.782,6.971,5.144,14.126,6.872,21.445c1.735,7.313,3.053,14.727,3.948,22.196c0.874,7.479,1.419,14.969,1.383,22.555
					L112.387,437.242z"/>
			</g>
		</g>
		<g>
			<path style="fill:#FF7800;" d="M138.721,423.289c1.992-9.054-5.159-6.626,3.247-10.413c8.406-3.787,10.817-4.014,12.008-12.679
				c1.191-8.666,3.518-14.763,10.055-18.778c6.537-4.015,0.263-13.366-6.792-9.908c-7.056,3.458-9.044,9.324-19.344,9.083
				c-11.617-0.272-18.13,3.044-16.451,12c1.308,6.973-1.009,12.931-8.366,16.518c-12.542,6.114,0.564,17.48,4.405,29.925
				C124.124,421.936,136.729,432.343,138.721,423.289z"/>
			<g>
				<path style="fill:#FF9014;" d="M117.612,437.309c-0.717-6.424,0.419-12.872,2.613-18.799c2.203-5.946,5.441-11.435,9.25-16.429
					c3.818-4.996,8.225-9.512,13.015-13.544c4.793-4.031,9.978-7.579,15.446-10.603c-5.386,3.168-10.462,6.845-15.122,10.979
					c-4.656,4.135-8.904,8.73-12.541,13.76c-3.628,5.027-6.658,10.505-8.643,16.336c-1.98,5.813-2.881,12.023-2.048,18.035
					L117.612,437.309z"/>
			</g>
		</g>
		<g>
			<path style="fill:#304A5F;" d="M95.889,429.004h15.439h15.439c0,0,2.531,13.415-4.556,26.07h-10.884h-10.884
				C93.358,442.419,95.889,429.004,95.889,429.004z"/>
			<path style="fill:#2C4C6A;" d="M93.801,434.497c0.126-3.414,0.433-5.493,0.433-5.493h17.094h17.094c0,0,0.308,2.079,0.433,5.493
				H93.801z"/>
		</g>
	</g>
	<g>
		<path style="fill:#FFFFFF;stroke:#C3DBE6;stroke-width:2.7309;stroke-miterlimit:10;" d="M586.515,228.302h-58.044
			c-1.88,0-3.403-1.524-3.403-3.403v-39.783c0-1.88,1.524-3.403,3.403-3.403h58.044c1.88,0,3.403,1.524,3.403,3.403v39.783
			C589.919,226.778,588.395,228.302,586.515,228.302z"/>
		<path style="fill:none;stroke:#C3DBE6;stroke-width:2;stroke-linecap:round;stroke-linejoin:round;stroke-miterlimit:10;" d="
			M529.788,222.456c4.617,0,4.617-6.314,9.234-6.314c4.617,0,4.617-11.135,9.235-11.135c4.617,0,3.339,7.258,7.956,7.258
			c4.618,0,5.896-19.012,10.514-19.012c4.618,0,4.618,8.344,9.236,8.344c4.618,0,4.618-8.344,9.236-8.344"/>
	</g>
	<g>
		<path style="fill:#C3DBE6;" d="M617.801,139.833h-3.924c-0.703,0-1.337-0.444-1.553-1.113c-0.251-0.777-0.562-1.525-0.928-2.242
			c-0.32-0.627-0.188-1.389,0.31-1.887l2.775-2.775c0.643-0.643,0.643-1.686,0-2.329l-2.792-2.793c-0.643-0.643-1.686-0.644-2.329,0
			l-2.776,2.775c-0.498,0.498-1.26,0.63-1.887,0.31c-0.717-0.366-1.466-0.678-2.243-0.929c-0.669-0.216-1.114-0.85-1.114-1.553
			v-3.924c0-0.91-0.737-1.647-1.647-1.647h-3.949c-0.91,0-1.647,0.737-1.647,1.647v3.925c0,0.703-0.444,1.337-1.113,1.553
			c-0.777,0.251-1.526,0.563-2.242,0.929c-0.627,0.32-1.389,0.188-1.887-0.31l-2.775-2.775c-0.643-0.643-1.686-0.643-2.33,0
			l-2.792,2.792c-0.643,0.643-0.643,1.686,0,2.329l2.775,2.775c0.498,0.498,0.63,1.26,0.309,1.887
			c-0.366,0.717-0.677,1.466-0.928,2.242c-0.217,0.669-0.85,1.114-1.553,1.114h-3.925c-0.91,0-1.647,0.738-1.647,1.647v3.949
			c0,0.91,0.737,1.647,1.647,1.647h3.925c0.703,0,1.337,0.444,1.553,1.113c0.251,0.777,0.562,1.526,0.928,2.243
			c0.321,0.627,0.188,1.389-0.309,1.887l-2.775,2.775c-0.643,0.643-0.643,1.686,0,2.329l2.792,2.792c0.643,0.643,1.686,0.643,2.33,0
			l2.775-2.775c0.498-0.498,1.26-0.63,1.887-0.31c0.717,0.366,1.466,0.677,2.242,0.929c0.669,0.216,1.113,0.85,1.113,1.553v3.924
			c0,0.91,0.737,1.647,1.647,1.647h3.949c0.91,0,1.647-0.738,1.647-1.647v-3.924c0-0.703,0.444-1.337,1.114-1.553
			c0.777-0.251,1.526-0.563,2.243-0.929c0.627-0.32,1.389-0.188,1.887,0.31l2.776,2.775c0.643,0.643,1.686,0.643,2.329,0
			l2.792-2.793c0.643-0.643,0.643-1.686,0-2.329l-2.775-2.775c-0.498-0.498-0.63-1.26-0.31-1.887
			c0.366-0.717,0.677-1.465,0.929-2.242c0.216-0.669,0.85-1.113,1.553-1.113h3.924c0.91,0,1.647-0.738,1.647-1.647v-3.949
			C619.448,140.57,618.711,139.833,617.801,139.833z M597.719,151.654c-4.532,0-8.199-3.667-8.199-8.199
			c0-4.532,3.667-8.199,8.199-8.199c4.532,0,8.199,3.667,8.199,8.199C605.918,147.986,602.251,151.654,597.719,151.654z"/>
		<path style="fill:#C3DBE6;" d="M645.774,157.673h-2.471c-0.443,0-0.842-0.28-0.978-0.701c-0.158-0.489-0.354-0.96-0.585-1.411
			c-0.202-0.395-0.118-0.875,0.195-1.188l1.747-1.747c0.405-0.405,0.405-1.062,0-1.467l-1.758-1.758
			c-0.405-0.405-1.062-0.405-1.467,0l-1.748,1.747c-0.313,0.314-0.793,0.397-1.188,0.195c-0.451-0.231-0.923-0.427-1.412-0.585
			c-0.421-0.136-0.701-0.535-0.701-0.978v-2.471c0-0.573-0.464-1.037-1.037-1.037h-2.486c-0.573,0-1.037,0.464-1.037,1.037v2.471
			c0,0.443-0.28,0.842-0.701,0.978c-0.489,0.158-0.961,0.354-1.412,0.585c-0.395,0.202-0.875,0.118-1.188-0.195l-1.747-1.747
			c-0.405-0.405-1.062-0.405-1.467,0l-1.758,1.758c-0.405,0.405-0.405,1.062,0,1.467l1.747,1.747
			c0.313,0.314,0.397,0.793,0.195,1.188c-0.23,0.451-0.426,0.923-0.585,1.412c-0.136,0.421-0.535,0.701-0.978,0.701h-2.471
			c-0.573,0-1.037,0.464-1.037,1.037v2.486c0,0.573,0.464,1.037,1.037,1.037h2.471c0.443,0,0.842,0.28,0.978,0.701
			c0.158,0.489,0.354,0.961,0.585,1.412c0.202,0.395,0.119,0.875-0.195,1.188l-1.747,1.747c-0.405,0.405-0.405,1.062,0,1.467
			l1.758,1.758c0.405,0.405,1.062,0.405,1.467,0l1.747-1.747c0.314-0.314,0.794-0.397,1.188-0.195
			c0.451,0.231,0.923,0.426,1.412,0.585c0.421,0.136,0.701,0.535,0.701,0.978v2.471c0,0.573,0.464,1.037,1.037,1.037h2.486
			c0.573,0,1.037-0.464,1.037-1.037v-2.471c0-0.443,0.28-0.842,0.701-0.978c0.489-0.158,0.961-0.354,1.412-0.585
			c0.395-0.202,0.875-0.118,1.188,0.195l1.748,1.747c0.405,0.405,1.062,0.405,1.467,0l1.758-1.758c0.405-0.405,0.405-1.062,0-1.467
			l-1.747-1.747c-0.313-0.314-0.397-0.793-0.195-1.188c0.231-0.451,0.426-0.923,0.585-1.412c0.136-0.421,0.535-0.701,0.978-0.701
			h2.47c0.573,0,1.037-0.464,1.037-1.037v-2.486C646.812,158.137,646.347,157.673,645.774,157.673z M633.13,165.115
			c-2.853,0-5.162-2.309-5.162-5.162c0-2.853,2.309-5.162,5.162-5.162c2.854,0,5.162,2.309,5.162,5.162
			C638.293,162.806,635.984,165.115,633.13,165.115z"/>
		<path style="fill:#C3DBE6;" d="M621.826,113.723H620.3c-0.273,0-0.52-0.173-0.604-0.433c-0.098-0.302-0.219-0.593-0.361-0.872
			c-0.125-0.244-0.073-0.54,0.12-0.734l1.079-1.079c0.25-0.25,0.25-0.656,0-0.906l-1.086-1.086c-0.25-0.25-0.656-0.25-0.906,0
			l-1.08,1.079c-0.194,0.194-0.49,0.245-0.734,0.121c-0.279-0.143-0.57-0.264-0.872-0.361c-0.26-0.084-0.433-0.331-0.433-0.604
			v-1.526c0-0.354-0.287-0.641-0.641-0.641h-1.536c-0.354,0-0.641,0.287-0.641,0.641v1.526c0,0.273-0.173,0.52-0.433,0.604
			c-0.302,0.098-0.593,0.219-0.872,0.361c-0.244,0.125-0.54,0.073-0.734-0.12l-1.079-1.079c-0.25-0.25-0.656-0.25-0.906,0
			l-1.086,1.086c-0.25,0.25-0.25,0.656,0,0.906l1.079,1.079c0.194,0.194,0.245,0.49,0.12,0.734c-0.142,0.279-0.263,0.57-0.361,0.872
			c-0.084,0.26-0.331,0.433-0.604,0.433h-1.526c-0.354,0-0.641,0.287-0.641,0.641v1.536c0,0.354,0.287,0.641,0.641,0.641h1.526
			c0.273,0,0.52,0.173,0.604,0.433c0.098,0.302,0.219,0.593,0.361,0.872c0.125,0.244,0.073,0.54-0.12,0.734l-1.079,1.079
			c-0.25,0.25-0.25,0.656,0,0.906l1.086,1.086c0.25,0.25,0.656,0.25,0.906,0l1.079-1.079c0.194-0.194,0.49-0.245,0.734-0.12
			c0.279,0.142,0.57,0.263,0.872,0.361c0.26,0.084,0.433,0.331,0.433,0.604v1.526c0,0.354,0.287,0.641,0.641,0.641h1.536
			c0.354,0,0.641-0.287,0.641-0.641v-1.526c0-0.273,0.173-0.52,0.433-0.604c0.302-0.098,0.593-0.219,0.872-0.361
			c0.244-0.125,0.54-0.073,0.734,0.12l1.08,1.079c0.25,0.25,0.656,0.25,0.906,0l1.086-1.086c0.25-0.25,0.25-0.656,0-0.906
			l-1.079-1.079c-0.194-0.194-0.245-0.49-0.12-0.734c0.142-0.279,0.263-0.57,0.361-0.872c0.084-0.26,0.33-0.433,0.604-0.433h1.526
			c0.354,0,0.641-0.287,0.641-0.641v-1.536C622.467,114.01,622.18,113.723,621.826,113.723z M614.016,118.32
			c-1.762,0-3.188-1.426-3.188-3.188c0-1.762,1.426-3.188,3.188-3.188c1.762,0,3.188,1.426,3.188,3.188
			C617.205,116.894,615.779,118.32,614.016,118.32z"/>
	</g>
	<g>
		<g>
			<path style="fill:#FF9407;" d="M395.17,380.824c-0.442-3.438-2.194-6.608-4.465-9.227c-2.271-2.619-5.052-4.742-7.868-6.763
				c-3.594-2.579-7.471-5.098-11.866-5.601c-2.089-0.239-4.288,0.017-6.105,1.075c-1.817,1.058-3.185,3-3.221,5.102
				c-0.044,2.572,1.802,4.79,3.813,6.393c2.012,1.603,4.327,2.898,5.904,4.931c2.037,2.626,2.561,6.12,4.22,9
				c1.585,2.752,4.231,4.874,7.261,5.825c2.706,0.849,7.409,1.2,9.485-1.155C394.589,387.84,395.601,384.179,395.17,380.824z"/>
			<path style="fill:#FF9014;" d="M395.897,381.067c-0.961-2.439-1.403-5.15-0.807-7.702c0.689-2.947,2.675-5.421,3.704-8.267
				c1.045-2.891,1.107-6.163,2.753-8.759c1.901-2.999,5.928-4.482,9.299-3.366c3.371,1.116,5.727,4.766,5.288,8.29
				c-0.305,2.451-1.771,4.598-2.43,6.979c-0.944,3.408-0.195,7.126-1.236,10.506c-0.871,2.826-3.025,5.229-5.74,6.403
				c-1.281,0.554-2.65,0.883-3.955,1.374c-0.864,0.325-1.86,0.919-2.82,0.655C397.972,386.635,396.57,382.772,395.897,381.067z"/>
			<path style="fill:#FF7800;" d="M402.462,402.789c1.331-2.437,3.978-4.1,6.751-4.24c1.976-0.1,3.913,0.517,5.885,0.684
				c2.189,0.185,4.427-0.183,6.57,0.301c2.143,0.483,4.272,2.241,4.102,4.431c-0.124,1.594-1.461,2.889-2.962,3.439
				c-1.502,0.55-3.148,0.498-4.745,0.403c-1.596-0.095-3.226-0.222-4.771,0.193c-1.847,0.495-3.399,1.716-5.099,2.59
				c-1.799,0.925-4.698,1.715-5.92-0.338C400.994,408.105,401.312,404.895,402.462,402.789z"/>
			<path style="fill:none;stroke:#FF7800;stroke-width:0.724;stroke-miterlimit:10;" d="M396.744,430.306
				c0,0,2.108-26.305,15.863-27.753"/>
			<path style="fill:none;stroke:#FF7800;stroke-width:0.724;stroke-miterlimit:10;" d="M396.921,436.34
				c0,0-2.172-41.026,8.688-70.467"/>
			<path style="fill:none;stroke:#FF7800;stroke-width:0.724;stroke-miterlimit:10;" d="M397.204,411.954
				c0,0,0.441-28.223-23.451-43.909"/>
		</g>
		<g>
			<path style="fill:#304A5F;" d="M411.99,429.309H396.73h-15.259c0,0-2.501,13.258,4.503,25.766h10.757h10.757
				C414.491,442.567,411.99,429.309,411.99,429.309z"/>
			<path style="fill:#2C4C6A;" d="M414.053,434.737c-0.124-3.374-0.428-5.429-0.428-5.429H396.73h-16.895
				c0,0-0.304,2.055-0.428,5.429H414.053z"/>
		</g>
	</g>
	<g>
		<rect x="455.643" y="35.866" style="fill:#C3DBE6;" width="18.758" height="28.888"/>
		<polygon style="fill:#C3DBE6;" points="465.022,17.667 447.919,38.944 482.125,38.944 		"/>
	</g>
	<g>
		<rect x="306.713" y="115.345" style="fill:#C3DBE6;" width="18.758" height="28.888"/>
		<polygon style="fill:#C3DBE6;" points="316.092,162.433 333.195,141.156 298.989,141.156 		"/>
	</g>
	<g>
		
			<ellipse transform="matrix(0.1602 -0.9871 0.9871 0.1602 433.998 630.5902)" style="fill:none;stroke:#A2C5D2;stroke-width:8.5831;stroke-miterlimit:10;" cx="587.584" cy="60.243" rx="17.971" ry="17.971"/>
		<path style="fill:none;stroke:#C3DBE6;stroke-width:8.5831;stroke-miterlimit:10;" d="M578.592,75.806
			c-5.368-3.108-8.979-8.914-8.979-15.563"/>
		<path style="fill:none;stroke:#DCECF0;stroke-width:8.5831;stroke-miterlimit:10;" d="M569.613,60.243
			c0-9.925,8.046-17.971,17.971-17.971"/>
	</g>
	<g>
		<path style="fill:#C3DBE6;" d="M198.483,62.558h-11.656c-1.268,0-2.296-1.028-2.296-2.296V48.606c0-1.268,1.028-2.296,2.296-2.296
			h11.656c1.268,0,2.296,1.028,2.296,2.296v11.656C200.779,61.53,199.751,62.558,198.483,62.558z"/>
		<g>
			
				<polyline style="fill:none;stroke:#FFFFFF;stroke-width:2.2181;stroke-linecap:round;stroke-linejoin:round;stroke-miterlimit:10;" points="
				188.773,55.277 190.621,57.333 196.536,51.534 			"/>
		</g>
	</g>
	<g>
		<path style="fill:#C3DBE6;" d="M628.241,306.952h-11.656c-1.268,0-2.296-1.028-2.296-2.296V293c0-1.268,1.028-2.296,2.296-2.296
			h11.656c1.268,0,2.296,1.028,2.296,2.296v11.656C630.537,305.924,629.509,306.952,628.241,306.952z"/>
		<g>
			
				<polyline style="fill:none;stroke:#FFFFFF;stroke-width:2.2181;stroke-linecap:round;stroke-linejoin:round;stroke-miterlimit:10;" points="
				618.531,299.671 620.38,301.727 626.295,295.928 			"/>
		</g>
	</g>
	<g>
		<path style="fill:#C3DBE6;" d="M126.034,219.304h-17.372c-1.89,0-3.422-1.532-3.422-3.422V198.51c0-1.89,1.532-3.422,3.422-3.422
			h17.372c1.89,0,3.422,1.532,3.422,3.422v17.372C129.456,217.772,127.924,219.304,126.034,219.304z"/>
		
			<polyline style="fill:none;stroke:#FFFFFF;stroke-width:3.3059;stroke-linecap:round;stroke-linejoin:round;stroke-miterlimit:10;" points="
			111.562,208.452 114.317,211.517 123.133,202.875 		"/>
	</g>
	<g>
		<rect x="281.908" y="60.985" style="fill:#C3DBE6;" width="6.455" height="6.858"/>
		<rect x="291.151" y="56.844" style="fill:#C3DBE6;" width="6.455" height="11"/>
		<rect x="300.394" y="51.585" style="fill:#C3DBE6;" width="6.455" height="16.259"/>
		<rect x="309.637" y="44.908" style="fill:#C3DBE6;" width="6.455" height="22.936"/>
	</g>
	<g>
		<polygon style="fill:#FFC29F;" points="216.669,445.84 206.654,445.84 205.671,429.621 215.442,429.004 		"/>
		<polygon style="fill:#FFC29F;" points="163.36,445.476 153.588,445.184 155.338,430.963 164.381,432.349 		"/>
		<g>
			<polygon style="fill:#2C4C6A;" points="172.146,276.944 152.544,439.423 164.547,439.423 193.017,321.186 205.147,439.423 
				217.01,439.423 214.093,276.944 			"/>
		</g>
		<path style="fill:#FFC29F;" d="M243.562,217.147c0,0,1.985-3.817,1.832-5.573c-0.153-1.756-0.503-4.273,1.284-6.972
			c0.417-0.63,1.58-2.301,1.58-2.301s0.954,1.01,0.458,2.096c-0.496,1.088-0.834,2.247-0.834,2.247s0.867-1.577,4.157-2.534
			c1.541-0.449,7.609-1.987,7.609-1.987c0.858,0.01,0.741,1.24-0.948,2.042c0,0,0.754,0.778-0.632,1.556
			c0,0,0.971,0.726-0.948,1.799c0,0,0.764,0.614-1.215,1.799c-1.774,1.061-4.635,2.597-5.266,3.605
			c-0.846,1.349-2.212,5.973-2.212,5.973L243.562,217.147z"/>
		<g>
			<path style="fill:#FF9014;" d="M180.644,199.716c0,0-12.203,3.573-14.974,4.303c-2.771,0.729,0,18.377,3.792,38.651
				c3.792,20.273,2.683,34.275,2.683,34.275h41.947c0,0,1.743-65.456,0.777-67.675c-1.75-4.02-19.341-9.597-19.341-9.597
				L180.644,199.716z"/>
		</g>
		<path style="fill:#FFA980;" d="M183.096,185.22c0,0,0.417,10.047-1.333,14.082l2.139,4.059l5.64,3.428l3.573-2.678l1.046-3.059
			V185.22H183.096z"/>
		<g>
			<path style="fill:#2B2F3A;" d="M178.632,177.796c-0.494-1.288-0.45-2.772,0.119-4.029c0.465-1.027,1.25-1.879,1.752-2.889
				c0.438-0.882,0.671-1.901,1.369-2.596c0.706-0.703,1.797-0.935,2.774-0.741c0.977,0.195,1.847,0.771,2.546,1.481
				c0.961,0.975,1.643,2.221,1.946,3.555c0.368,1.621,0.181,3.318-0.14,4.949c-0.291,1.48-0.722,3-1.74,4.112
				c-0.802,0.876-1.943,1.435-3.127,1.533c-1.167,0.096-2.865-0.233-3.519-1.328c-0.32-0.536-0.475-1.172-0.76-1.729
				C179.455,179.337,178.947,178.616,178.632,177.796z"/>
		</g>
		<path style="fill:#FFC29F;" d="M200.091,169.208c0,0,2.431,22.267-4.084,25.476c-4.213,2.075-10.939-0.146-11.96-10.064
			c-1.021-9.918,3.446-14.747,8.654-15.412C197.271,168.625,200.091,169.208,200.091,169.208z"/>
		<path style="fill:#FFC29F;" d="M183.901,180.293c0,0-1.506-1.653-2.965,0c-1.459,1.653,1.21,5.109,3.23,5.277L183.901,180.293z"/>
		<g>
			<path style="fill:#2B2F3A;" d="M187.313,172.39c1.204,0.164,2.434,0.012,3.639,0.172c1.412,0.187,2.729,0.793,4.068,1.278
				c1.993,0.721,4.121,1.188,6.229,0.966c2.108-0.222,4.198-1.2,5.437-2.92c1.261-1.751,1.496-4.189,0.593-6.149
				c-0.903-1.96-2.908-3.366-5.059-3.545c-2.407-0.201-4.671,1.006-6.938,1.837c-2.42,0.887-4.989,1.367-7.566,1.413
				c-1.061,0.019-2.137-0.033-3.167,0.222c-1.03,0.255-2.035,0.882-2.428,1.867c-0.506,1.265,0.322,2.248,1.253,2.961
				C184.589,171.421,185.759,172.177,187.313,172.39z"/>
		</g>
		<path style="fill:#FF7800;" d="M182.182,198.086c0,0,1.403,4.863,7.359,8.703c-0.195,1.823-5.301,5.518-7.48-0.571
			c-1.079-3.013-1.417-6.503-1.417-6.503L182.182,198.086z"/>
		<path style="fill:#FF7800;" d="M189.541,206.789c4.497-3.087,4.619-8.538,4.619-8.538l1.369,1.42c0,0,1.013,6.073-1.126,8.868
			C192.935,210.458,189.737,207.964,189.541,206.789z"/>
		<path style="fill:#FFC29F;" d="M169.268,277.576c0,0,4.23,6.417,6.053,7.876c1.823,1.459,3.225,4.544,3.225,4.544l-5.375,7.313
			c0,0-3.229-1.072-4.25-4.938c-1.021-3.865-1.986-4.294-3.664-8.013c-1.677-3.719-1.677-3.719-1.677-3.719L169.268,277.576z"/>
		<g>
			<path style="fill:#FF9014;" d="M165.034,204.656c0,0-6.219,0.383-9.136,11.759c-2.917,11.376-6.546,30.086-7.518,38.06
				c-0.412,3.377,17.546,32.967,17.546,32.967s3.569-3.239,6.745-5.946c0,0-9.925-20.741-9.925-28.326
				c0,0,8.909-24.749,9.197-32.233C172.234,213.353,172.274,205.44,165.034,204.656z"/>
		</g>
		<g>
			<path style="fill:#FF9014;" d="M214.87,209.269c2.328,0.353,9.433,16.19,13.954,24.357c4.521,8.168,4.521,8.168,4.521,8.168
				l10.939-28.003c0,0,3.646-0.583,5.834,2.625c0,0-5.834,37.775-7.293,42.005c-1.459,4.23-5.98,7.293-14.002-2.771
				c-8.022-10.064-21.878-29.608-23.045-31.796C204.613,221.666,201.404,207.227,214.87,209.269z"/>
		</g>
		<path style="fill:#21323F;" d="M206.654,444.673h9.335c0,0,1.021,0,4.084,3.209c3.063,3.209,11.96,0.146,15.314,6.563h-29.462
			C205.925,454.446,203.154,449.341,206.654,444.673z"/>
		<g>
			<path style="fill:#21323F;" d="M150.21,454.446c-1.118-3.744,1.507-6.466,2.334-9.772c0.51-2.041,10.75-3.299,11.765,1.167
				c0.972,4.278,0.195,8.605,0.195,8.605H150.21z"/>
		</g>
		
			<rect x="168.815" y="291.769" transform="matrix(0.564 -0.8258 0.8258 0.564 -165.0842 273.1973)" style="fill:#203B53;" width="14.731" height="2.334"/>
		<rect x="172.146" y="276.944" style="fill:#203B53;" width="42.001" height="3.014"/>
		<polygon style="fill:#203B53;" points="193.017,321.186 198.851,299.381 195.009,340.608 		"/>
		<polygon style="fill:#FF7800;" points="214.965,237.124 215.162,221.132 218.875,242.509 		"/>
		<path style="fill:#FF7800;" d="M168.311,236.405l2.719-9.906l-1.003,19.354C170.027,245.852,168.376,237.395,168.311,236.405z"/>
	</g>
	<g>
		<g>
			<g>
				<g>
					<path style="fill:#2C4C6A;" d="M571.256,453.077l-19.421-85.003h7.26l15.038,85.003
						C574.042,454.902,571.347,454.902,571.256,453.077z"/>
				</g>
				<g>
					<path style="fill:#2C4C6A;" d="M522.192,453.077l-19.421-85.003h7.26l15.038,85.003
						C524.977,454.902,522.282,454.902,522.192,453.077z"/>
				</g>
				<g>
					<path style="fill:#A2C5D2;" d="M454.983,453.077l19.421-85.003h-7.26l-15.038,85.003
						C452.198,454.902,454.893,454.902,454.983,453.077z"/>
				</g>
				<g>
					<path style="fill:#A2C5D2;" d="M578.638,300.784h-39.495c-2.546,0-4.82,1.592-5.69,3.984l-19.314,53.064
						c-1.438,3.95,1.487,8.127,5.69,8.127h39.495c2.546,0,4.82-1.592,5.69-3.984l19.314-53.064
						C585.766,304.961,582.842,300.784,578.638,300.784z"/>
				</g>
				<g>
					<path style="fill:#A2C5D2;" d="M563.144,370.189H461.65c-1.168,0-2.115-0.947-2.115-2.115l0,0c0-1.168,0.947-2.115,2.115-2.115
						h101.494c1.168,0,2.115,0.947,2.115,2.115l0,0C565.259,369.242,564.312,370.189,563.144,370.189z"/>
				</g>
				<g>
					<path style="fill:#91B9C4;" d="M563.144,370.189h-40.936c-1.168,0-2.115-0.947-2.115-2.115l0,0
						c0-1.168,0.947-2.115,2.115-2.115h40.936c1.168,0,2.115,0.947,2.115,2.115l0,0
						C565.259,369.242,564.312,370.189,563.144,370.189z"/>
				</g>
				<g>
					<path style="fill:#A2C5D2;" d="M500.839,453.077l19.421-85.003H513l-15.038,85.003
						C498.053,454.902,500.748,454.902,500.839,453.077z"/>
				</g>
			</g>
			<g>
				<path style="fill:#21323F;" d="M533.196,246.047c0,0-5.834,0.314-6.32,6.634c-0.486,6.32,0.65,9.602-2.072,15.922
					c-2.722,6.32-4.929,14.804,6.448,15.582c11.376,0.778,14.874,0.292,18.376,3.014c3.502,2.723,15.437-5.542,11.158-12.835
					c-4.278-7.293-5.907-11.474-4.156-17.113c1.751-5.64-1.935-11.824-8.751-14.488
					C542.157,240.527,537.474,240.871,533.196,246.047z"/>
			</g>
			<g>
				<path style="fill:#FF9014;" d="M530.244,282.24c0,0,1.591,4.959-2.327,19.253c-3.911,14.266-5.187,19.008-8.876,21.683
					c-2.277,1.651-28.144,1.651-28.144,1.651v-7.29l22.756-2.771c0,0,2.878-14.119,5.787-22.983
					c1.006-3.066,2.696-11.024,6.291-12.593C529.325,277.62,530.244,282.24,530.244,282.24z"/>
			</g>
			<g>
				<g>
					<path style="fill:#FF9014;" d="M559.455,306.65c-1.073,8.063-3.99,27.805-3.99,27.805h-30.244c0,0,0.91-12.077-0.572-18.634
						c-0.268-1.202-0.618-2.229-1.073-2.952c-2.345-3.746-4.446-7.246-4.469-11.108c0-0.933,0.117-1.902,0.385-2.894
						c1.353-5.052,3.395-16.242,5.927-19.346c2.532-3.115,15.136-2.718,15.136-2.718s16.481,0.049,21.42,2.811
						c1.316,0.736,1.82,2.392,1.925,4.376C564.239,290.163,560.26,300.547,559.455,306.65z"/>
				</g>
				<path style="fill:#FF7800;" d="M554.578,309.275c0,0-23.056,1.855-29.929,6.546c-0.268-1.202-0.618-2.229-1.073-2.952
					c-2.345-3.746-4.446-7.246-4.469-11.108c1.529,3.174,5.426,7.386,15.344,7.514C550.401,309.462,554.578,309.275,554.578,309.275
					z"/>
				<path style="fill:#FF7800;" d="M559.455,306.65c-1.073,8.063-3.99,27.805-3.99,27.805l1.447-46.661l6.989-3.804
					C564.239,290.163,560.26,300.547,559.455,306.65z"/>
			</g>
			<g>
				<path style="fill:#FFC29F;" d="M547.829,318.464c0,0-14.425,0.531-18.953,0.822c0,0-4.117-1.558-6.667-1.75
					c-3.865-0.292-7.268,3.571-8.289,7.29h33.43L547.829,318.464z"/>
				<g>
					<path style="fill:#FF9014;" d="M563.267,281.161c0,0,4.253,7.935,7.024,18.436c2.771,10.501,6.563,21.148,3.063,24.066
						c-3.501,2.917-25.962,1.75-25.962,1.75l-0.583-7.876l17.111-2.771c0,0-6.464-16.19-7.485-19.107
						c-1.021-2.917-1.793-11.884,1.802-13.453C561.832,280.636,563.267,281.161,563.267,281.161z"/>
				</g>
			</g>
			<g>
				<g>
					<polygon style="fill:#FFC29F;" points="480.847,446.147 475.695,446.147 475.022,438.541 481.311,437.917 					"/>
					<g>
						<path style="fill:#192730;" d="M480.847,446.147c0,0,1.9,1.978,1.271,6.356c-0.298,2.075-4.818,1.94-12.445,1.94h-7.594
							c-1.289,0-1.86-1.602-0.876-2.435c0.463-0.392,1.113-0.762,2.024-1.044c8.581-2.657,12.469-4.818,12.469-4.818H480.847z"/>
					</g>
				</g>
				<path style="fill:#203B53;" d="M541.869,334.455c-0.049,2.625,5.978,11.526,4.783,20.201
					c-0.784,5.688-5.668,11.303-17.065,11.303c-15.562,0-40.358-0.167-44.412,0c-3.216,0.133-4.749,0.204-2.862,6.272
					c4.467,14.366,0.689,38.828-0.483,71.936h-6.795c0,0-6.029-34.36-8.528-50.982c-3.889-25.864-9.796-36.01,1.458-41.373
					c11.903-5.672,57.296-17.356,57.296-17.356H541.869z"/>
				<g>
					<polygon style="fill:#FFC29F;" points="495.514,446.147 490.362,446.147 489.688,438.541 495.978,437.917 					"/>
					<g>
						<path style="fill:#21323F;" d="M495.514,446.147c0,0,1.9,1.978,1.271,6.356c-0.298,2.075-4.818,1.94-12.445,1.94h-7.594
							c-1.289,0-1.86-1.602-0.876-2.435c0.463-0.392,1.113-0.762,2.024-1.044c8.581-2.657,12.469-4.818,12.469-4.818H495.514z"/>
					</g>
				</g>
				<g>
					<path style="fill:#2C4C6A;" d="M555.463,334.455c-0.049,2.625,5.978,11.526,4.783,20.201
						c-0.784,5.688-5.668,11.303-17.065,11.303c-15.561,0-40.255,0-44.412,0c-3.219,0-4.749,0.204-2.862,6.272
						c4.467,14.366,2.474,39.119,0.238,71.936h-6.815c0,0-6.73-34.36-9.23-50.982c-3.889-25.864-9.796-36.01,1.458-41.373
						c11.903-5.672,53.828-17.356,53.828-17.356H555.463z"/>
				</g>
			</g>
			<g>
				<g>
					<path style="fill:#FFC29F;" d="M532.321,277.158c0,0-0.091,6.443,4.278,10.138c0,0,9.28-4.327,12.635-10.124
						C549.234,277.172,540.52,276.217,532.321,277.158z"/>
					<path style="fill:#FFC29F;" d="M534.21,276.974c0,0,2.286-0.233,2.286-2.917c0-2.683,0.267-7.788,0.267-7.788l8.605,0.729
						c0,0-0.729,8.429,0.656,9.976c1.385,1.547,1.385,1.547,1.385,1.547S535.594,280.533,534.21,276.974z"/>
				</g>
				<path style="fill:#FFA980;" d="M536.499,272.979c0,0,5.658,0.875,8.679-1.531l0.191-4.449l-8.87,1.92V272.979z"/>
				<path style="fill:#FFC29F;" d="M531.494,249.195c0,0-7.584,20.794,3.063,23.127c10.647,2.334,12.835-8.751,12.835-8.751
					s2.752-0.654,3.178-3.038c0.413-2.309-2.79-1.434-2.79-1.434s2.83-8.551-3.598-11.425
					C537.428,244.653,532.807,246.235,531.494,249.195z"/>
				<g>
					<path style="fill:#21323F;" d="M532.51,246.652c0,0,2.437,11.668,15.272,12.446c0,0,3.306-8.265,1.07-11.765
						C546.615,243.833,536.302,241.645,532.51,246.652z"/>
				</g>
			</g>
		</g>
		<g>
			<g>
				<path style="fill:#21323F;" d="M520.791,322.492h-50.685l-12.143-33.364c-0.516-1.417,0.534-2.915,2.041-2.915h46.062
					c0.913,0,1.729,0.571,2.041,1.429L520.791,322.492z"/>
			</g>
			<g>
				<path style="fill:#21323F;" d="M550.915,325.643h-50.37c-0.87,0-1.575-0.705-1.575-1.575l0,0c0-0.87,0.705-1.575,1.575-1.575
					h50.37c0.87,0,1.575,0.705,1.575,1.575l0,0C552.49,324.938,551.785,325.643,550.915,325.643z"/>
			</g>
			<g>
				<path style="fill:#21323F;" d="M520.633,325.643h-50.37c-0.87,0-1.575-0.705-1.575-1.575l0,0c0-0.87,0.705-1.575,1.575-1.575
					h50.37c0.87,0,1.575,0.705,1.575,1.575l0,0C522.209,324.938,521.503,325.643,520.633,325.643z"/>
			</g>
		</g>
	</g>
	<g>
		<path style="fill:#2C4C6A;" d="M640.307,452.452l-28.299-123.861h10.578l21.912,123.861
			C644.366,455.11,640.439,455.11,640.307,452.452z"/>
		<path style="fill:#2C4C6A;" d="M354.632,452.452l-28.299-123.861h10.578l21.912,123.861
			C358.691,455.11,354.764,455.11,354.632,452.452z"/>
		<path style="fill:#C3DBE6;" d="M242.728,452.452l28.299-123.861h-10.578l-21.912,123.861
			C238.669,455.11,242.596,455.11,242.728,452.452z"/>
		<path style="fill:#C3DBE6;" d="M514.54,452.452l28.299-123.861H532.26l-21.912,123.861
			C510.481,455.11,514.408,455.11,514.54,452.452z"/>
		<path style="fill:#A2C5D2;" d="M241.085,331.538h403.677c1.407,0,2.548-1.141,2.548-2.548v-0.799c0-1.407-1.141-2.548-2.548-2.548
			H241.085c-1.407,0-2.548,1.141-2.548,2.548v0.799C238.537,330.397,239.678,331.538,241.085,331.538z"/>
		<path style="fill:#91B9C4;" d="M554.549,331.538h89.814c1.628,0,2.948-1.32,2.948-2.948l0,0c0-1.628-1.32-2.948-2.948-2.948
			h-89.814c-1.628,0-2.948,1.32-2.948,2.948l0,0C551.601,330.218,552.921,331.538,554.549,331.538z"/>
	</g>
	<g>
		<g>
			<path style="fill:#21323F;" d="M326.947,322.492h50.685l12.143-33.364c0.516-1.417-0.533-2.915-2.041-2.915h-46.062
				c-0.913,0-1.729,0.571-2.041,1.429L326.947,322.492z"/>
		</g>
		<g>
			<path style="fill:#21323F;" d="M296.823,325.643h50.37c0.87,0,1.575-0.705,1.575-1.575l0,0c0-0.87-0.705-1.575-1.575-1.575
				h-50.37c-0.87,0-1.575,0.705-1.575,1.575l0,0C295.247,324.938,295.953,325.643,296.823,325.643z"/>
		</g>
		<g>
			<path style="fill:#21323F;" d="M327.104,325.643h50.37c0.87,0,1.575-0.705,1.575-1.575l0,0c0-0.87-0.705-1.575-1.575-1.575
				h-50.37c-0.87,0-1.575,0.705-1.575,1.575l0,0C325.529,324.938,326.234,325.643,327.104,325.643z"/>
		</g>
	</g>
</g>
</svg>
